<?xml version="1.0" encoding="UTF-8" standalone="no"?>
<!DOCTYPE svg PUBLIC "-//W3C//DTD SVG 1.1//EN"
 "http://www.w3.org/Graphics/SVG/1.1/DTD/svg11.dtd">
<!-- Generated by graphviz version 2.31.20130417.0446 (20130417.0446)
 -->
<!-- Title: G Pages: 1 -->
<svg width="891pt" height="332pt"
 viewBox="0.00 0.00 891.00 332.00" xmlns="http://www.w3.org/2000/svg" xmlns:xlink="http://www.w3.org/1999/xlink">
<g id="graph0" class="graph" transform="scale(1 1) rotate(0) translate(4 328)">
<title>G</title>
<polygon fill="white" stroke="white" points="-4,5 -4,-328 888,-328 888,5 -4,5"/>
<!-- 50 -->
<g id="node1" class="node"><title>50</title>
<path fill="#084081" stroke="#084081" d="M265.5,-36C265.5,-36 234.5,-36 234.5,-36 228.5,-36 222.5,-30 222.5,-24 222.5,-24 222.5,-12 222.5,-12 222.5,-6 228.5,-0 234.5,-0 234.5,-0 265.5,-0 265.5,-0 271.5,-0 277.5,-6 277.5,-12 277.5,-12 277.5,-24 277.5,-24 277.5,-30 271.5,-36 265.5,-36"/>
<text text-anchor="middle" x="250" y="-14.6" font-family="Times New Roman,serif" font-size="13.00">有理数</text>
</g>
<!-- 52 -->
<g id="node3" class="node"><title>52</title>
<path fill="#084081" stroke="#084081" d="M192.5,-108C192.5,-108 123.5,-108 123.5,-108 117.5,-108 111.5,-102 111.5,-96 111.5,-96 111.5,-84 111.5,-84 111.5,-78 117.5,-72 123.5,-72 123.5,-72 192.5,-72 192.5,-72 198.5,-72 204.5,-78 204.5,-84 204.5,-84 204.5,-96 204.5,-96 204.5,-102 198.5,-108 192.5,-108"/>
<text text-anchor="middle" x="158" y="-86.6" font-family="Times New Roman,serif" font-size="13.00">一元一次方程</text>
</g>
<!-- 50&#45;&gt;52 -->
<g id="edge1" class="edge"><title>50&#45;&gt;52</title>
<path fill="none" stroke="grey" d="M227.258,-36.3034C215.56,-45.204 201.139,-56.1768 188.49,-65.8011"/>
<polygon fill="grey" stroke="grey" points="186.319,-63.055 180.48,-71.8957 190.558,-68.6258 186.319,-63.055"/>
</g>
<!-- 62 -->
<g id="node13" class="node"><title>62</title>
<path fill="#084081" stroke="#084081" d="M265,-108C265,-108 235,-108 235,-108 229,-108 223,-102 223,-96 223,-96 223,-84 223,-84 223,-78 229,-72 235,-72 235,-72 265,-72 265,-72 271,-72 277,-78 277,-84 277,-84 277,-96 277,-96 277,-102 271,-108 265,-108"/>
<text text-anchor="middle" x="250" y="-86.6" font-family="Times New Roman,serif" font-size="13.00">实数</text>
</g>
<!-- 50&#45;&gt;62 -->
<g id="edge9" class="edge"><title>50&#45;&gt;62</title>
<path fill="none" stroke="grey" d="M250,-36.3034C250,-44.0173 250,-53.2875 250,-61.8876"/>
<polygon fill="grey" stroke="grey" points="246.5,-61.8956 250,-71.8957 253.5,-61.8957 246.5,-61.8956"/>
</g>
<!-- 64 -->
<g id="node15" class="node"><title>64</title>
<path fill="#084081" stroke="#084081" d="M427,-108C427,-108 307,-108 307,-108 301,-108 295,-102 295,-96 295,-96 295,-84 295,-84 295,-78 301,-72 307,-72 307,-72 427,-72 427,-72 433,-72 439,-78 439,-84 439,-84 439,-96 439,-96 439,-102 433,-108 427,-108"/>
<text text-anchor="middle" x="367" y="-86.6" font-family="Times New Roman,serif" font-size="13.00">整式的乘除与因式分解</text>
</g>
<!-- 50&#45;&gt;64 -->
<g id="edge12" class="edge"><title>50&#45;&gt;64</title>
<path fill="none" stroke="grey" d="M277.431,-35.4119C293.076,-44.7718 312.896,-56.6303 329.913,-66.8111"/>
<polygon fill="grey" stroke="grey" points="328.14,-69.8293 338.519,-71.96 331.734,-63.8223 328.14,-69.8293"/>
</g>
<!-- 51 -->
<g id="node2" class="node"><title>51</title>
<path fill="#084081" stroke="#084081" d="M395,-36C395,-36 339,-36 339,-36 333,-36 327,-30 327,-24 327,-24 327,-12 327,-12 327,-6 333,-0 339,-0 339,-0 395,-0 395,-0 401,-0 407,-6 407,-12 407,-12 407,-24 407,-24 407,-30 401,-36 395,-36"/>
<text text-anchor="middle" x="367" y="-14.6" font-family="Times New Roman,serif" font-size="13.00">整式的加减</text>
</g>
<!-- 51&#45;&gt;64 -->
<g id="edge13" class="edge"><title>51&#45;&gt;64</title>
<path fill="none" stroke="grey" d="M367,-36.3034C367,-44.0173 367,-53.2875 367,-61.8876"/>
<polygon fill="grey" stroke="grey" points="363.5,-61.8956 367,-71.8957 370.5,-61.8957 363.5,-61.8956"/>
</g>
<!-- 57 -->
<g id="node8" class="node"><title>57</title>
<path fill="#084081" stroke="#084081" d="M100,-180C100,-180 18,-180 18,-180 12,-180 6,-174 6,-168 6,-168 6,-156 6,-156 6,-150 12,-144 18,-144 18,-144 100,-144 100,-144 106,-144 112,-150 112,-156 112,-156 112,-168 112,-168 112,-174 106,-180 100,-180"/>
<text text-anchor="middle" x="59" y="-158.6" font-family="Times New Roman,serif" font-size="13.00">二元一次方程组</text>
</g>
<!-- 52&#45;&gt;57 -->
<g id="edge5" class="edge"><title>52&#45;&gt;57</title>
<path fill="none" stroke="grey" d="M133.782,-108.124C121.077,-117.107 105.336,-128.237 91.5768,-137.966"/>
<polygon fill="grey" stroke="grey" points="89.4557,-135.179 83.3112,-143.81 93.497,-140.895 89.4557,-135.179"/>
</g>
<!-- 63 -->
<g id="node14" class="node"><title>63</title>
<path fill="#084081" stroke="#084081" d="M186,-180C186,-180 142,-180 142,-180 136,-180 130,-174 130,-168 130,-168 130,-156 130,-156 130,-150 136,-144 142,-144 142,-144 186,-144 186,-144 192,-144 198,-150 198,-156 198,-156 198,-168 198,-168 198,-174 192,-180 186,-180"/>
<text text-anchor="middle" x="164" y="-158.6" font-family="Times New Roman,serif" font-size="13.00">一次函数</text>
</g>
<!-- 52&#45;&gt;63 -->
<g id="edge11" class="edge"><title>52&#45;&gt;63</title>
<path fill="none" stroke="grey" d="M159.483,-108.303C160.144,-116.017 160.939,-125.288 161.676,-133.888"/>
<polygon fill="grey" stroke="grey" points="158.193,-134.231 162.534,-143.896 165.167,-133.633 158.193,-134.231"/>
</g>
<!-- 53 -->
<g id="node4" class="node"><title>53</title>
<path fill="#084081" stroke="#084081" d="M647.5,-36C647.5,-36 578.5,-36 578.5,-36 572.5,-36 566.5,-30 566.5,-24 566.5,-24 566.5,-12 566.5,-12 566.5,-6 572.5,-0 578.5,-0 578.5,-0 647.5,-0 647.5,-0 653.5,-0 659.5,-6 659.5,-12 659.5,-12 659.5,-24 659.5,-24 659.5,-30 653.5,-36 647.5,-36"/>
<text text-anchor="middle" x="613" y="-14.6" font-family="Times New Roman,serif" font-size="13.00">图形认识初步</text>
</g>
<!-- 54 -->
<g id="node5" class="node"><title>54</title>
<path fill="#084081" stroke="#084081" d="M654,-108C654,-108 572,-108 572,-108 566,-108 560,-102 560,-96 560,-96 560,-84 560,-84 560,-78 566,-72 572,-72 572,-72 654,-72 654,-72 660,-72 666,-78 666,-84 666,-84 666,-96 666,-96 666,-102 660,-108 654,-108"/>
<text text-anchor="middle" x="613" y="-86.6" font-family="Times New Roman,serif" font-size="13.00">相交线与平行线</text>
</g>
<!-- 53&#45;&gt;54 -->
<g id="edge2" class="edge"><title>53&#45;&gt;54</title>
<path fill="none" stroke="grey" d="M613,-36.3034C613,-44.0173 613,-53.2875 613,-61.8876"/>
<polygon fill="grey" stroke="grey" points="609.5,-61.8956 613,-71.8957 616.5,-61.8957 609.5,-61.8956"/>
</g>
<!-- 55 -->
<g id="node6" class="node"><title>55</title>
<path fill="#084081" stroke="#084081" d="M517,-180C517,-180 435,-180 435,-180 429,-180 423,-174 423,-168 423,-168 423,-156 423,-156 423,-150 429,-144 435,-144 435,-144 517,-144 517,-144 523,-144 529,-150 529,-156 529,-156 529,-168 529,-168 529,-174 523,-180 517,-180"/>
<text text-anchor="middle" x="476" y="-158.6" font-family="Times New Roman,serif" font-size="13.00">平面直角坐标系</text>
</g>
<!-- 54&#45;&gt;55 -->
<g id="edge3" class="edge"><title>54&#45;&gt;55</title>
<path fill="none" stroke="grey" d="M579.486,-108.124C561.159,-117.488 538.264,-129.186 518.672,-139.197"/>
<polygon fill="grey" stroke="grey" points="516.955,-136.143 509.643,-143.81 520.14,-142.377 516.955,-136.143"/>
</g>
<!-- 56 -->
<g id="node7" class="node"><title>56</title>
<path fill="#084081" stroke="#084081" d="M590.5,-180C590.5,-180 559.5,-180 559.5,-180 553.5,-180 547.5,-174 547.5,-168 547.5,-168 547.5,-156 547.5,-156 547.5,-150 553.5,-144 559.5,-144 559.5,-144 590.5,-144 590.5,-144 596.5,-144 602.5,-150 602.5,-156 602.5,-156 602.5,-168 602.5,-168 602.5,-174 596.5,-180 590.5,-180"/>
<text text-anchor="middle" x="575" y="-158.6" font-family="Times New Roman,serif" font-size="13.00">三角型</text>
</g>
<!-- 54&#45;&gt;56 -->
<g id="edge4" class="edge"><title>54&#45;&gt;56</title>
<path fill="none" stroke="grey" d="M603.607,-108.303C599.235,-116.356 593.943,-126.106 589.105,-135.018"/>
<polygon fill="grey" stroke="grey" points="585.98,-133.437 584.285,-143.896 592.132,-136.777 585.98,-133.437"/>
</g>
<!-- 61 -->
<g id="node12" class="node"><title>61</title>
<path fill="#084081" stroke="#084081" d="M666.5,-180C666.5,-180 635.5,-180 635.5,-180 629.5,-180 623.5,-174 623.5,-168 623.5,-168 623.5,-156 623.5,-156 623.5,-150 629.5,-144 635.5,-144 635.5,-144 666.5,-144 666.5,-144 672.5,-144 678.5,-150 678.5,-156 678.5,-156 678.5,-168 678.5,-168 678.5,-174 672.5,-180 666.5,-180"/>
<text text-anchor="middle" x="651" y="-158.6" font-family="Times New Roman,serif" font-size="13.00">轴对称</text>
</g>
<!-- 54&#45;&gt;61 -->
<g id="edge8" class="edge"><title>54&#45;&gt;61</title>
<path fill="none" stroke="grey" d="M622.393,-108.303C626.765,-116.356 632.057,-126.106 636.895,-135.018"/>
<polygon fill="grey" stroke="grey" points="633.868,-136.777 641.715,-143.896 640.02,-133.437 633.868,-136.777"/>
</g>
<!-- 68 -->
<g id="node19" class="node"><title>68</title>
<path fill="#084081" stroke="#084081" d="M739.5,-180C739.5,-180 708.5,-180 708.5,-180 702.5,-180 696.5,-174 696.5,-168 696.5,-168 696.5,-156 696.5,-156 696.5,-150 702.5,-144 708.5,-144 708.5,-144 739.5,-144 739.5,-144 745.5,-144 751.5,-150 751.5,-156 751.5,-156 751.5,-168 751.5,-168 751.5,-174 745.5,-180 739.5,-180"/>
<text text-anchor="middle" x="724" y="-158.6" font-family="Times New Roman,serif" font-size="13.00">四边形</text>
</g>
<!-- 54&#45;&gt;68 -->
<g id="edge19" class="edge"><title>54&#45;&gt;68</title>
<path fill="none" stroke="grey" d="M640.154,-108.124C654.533,-117.192 672.381,-128.448 687.91,-138.241"/>
<polygon fill="grey" stroke="grey" points="686.416,-141.436 696.742,-143.81 690.15,-135.516 686.416,-141.436"/>
</g>
<!-- 60 -->
<g id="node11" class="node"><title>60</title>
<path fill="#084081" stroke="#084081" d="M509,-252C509,-252 453,-252 453,-252 447,-252 441,-246 441,-240 441,-240 441,-228 441,-228 441,-222 447,-216 453,-216 453,-216 509,-216 509,-216 515,-216 521,-222 521,-228 521,-228 521,-240 521,-240 521,-246 515,-252 509,-252"/>
<text text-anchor="middle" x="481" y="-230.6" font-family="Times New Roman,serif" font-size="13.00">全等三角型</text>
</g>
<!-- 56&#45;&gt;60 -->
<g id="edge7" class="edge"><title>56&#45;&gt;60</title>
<path fill="none" stroke="grey" d="M551.764,-180.303C539.812,-189.204 525.077,-200.177 512.153,-209.801"/>
<polygon fill="grey" stroke="grey" points="509.899,-207.116 503.969,-215.896 514.08,-212.73 509.899,-207.116"/>
</g>
<!-- 67 -->
<g id="node18" class="node"><title>67</title>
<path fill="#084081" stroke="#084081" d="M595,-252C595,-252 551,-252 551,-252 545,-252 539,-246 539,-240 539,-240 539,-228 539,-228 539,-222 545,-216 551,-216 551,-216 595,-216 595,-216 601,-216 607,-222 607,-228 607,-228 607,-240 607,-240 607,-246 601,-252 595,-252"/>
<text text-anchor="middle" x="573" y="-230.6" font-family="Times New Roman,serif" font-size="13.00">勾股定理</text>
</g>
<!-- 56&#45;&gt;67 -->
<g id="edge18" class="edge"><title>56&#45;&gt;67</title>
<path fill="none" stroke="grey" d="M574.506,-180.303C574.285,-188.017 574.02,-197.288 573.775,-205.888"/>
<polygon fill="grey" stroke="grey" points="570.276,-205.8 573.489,-215.896 577.273,-206 570.276,-205.8"/>
</g>
<!-- 58 -->
<g id="node9" class="node"><title>58</title>
<path fill="#084081" stroke="#084081" d="M106.5,-252C106.5,-252 11.5,-252 11.5,-252 5.5,-252 -0.5,-246 -0.5,-240 -0.5,-240 -0.5,-228 -0.5,-228 -0.5,-222 5.5,-216 11.5,-216 11.5,-216 106.5,-216 106.5,-216 112.5,-216 118.5,-222 118.5,-228 118.5,-228 118.5,-240 118.5,-240 118.5,-246 112.5,-252 106.5,-252"/>
<text text-anchor="middle" x="59" y="-230.6" font-family="Times New Roman,serif" font-size="13.00">不等式与不等式组</text>
</g>
<!-- 57&#45;&gt;58 -->
<g id="edge6" class="edge"><title>57&#45;&gt;58</title>
<path fill="none" stroke="grey" d="M59,-180.303C59,-188.017 59,-197.288 59,-205.888"/>
<polygon fill="grey" stroke="grey" points="55.5001,-205.896 59,-215.896 62.5001,-205.896 55.5001,-205.896"/>
</g>
<!-- 59 -->
<g id="node10" class="node"><title>59</title>
<path fill="#084081" stroke="#084081" d="M870.5,-36C870.5,-36 737.5,-36 737.5,-36 731.5,-36 725.5,-30 725.5,-24 725.5,-24 725.5,-12 725.5,-12 725.5,-6 731.5,-0 737.5,-0 737.5,-0 870.5,-0 870.5,-0 876.5,-0 882.5,-6 882.5,-12 882.5,-12 882.5,-24 882.5,-24 882.5,-30 876.5,-36 870.5,-36"/>
<text text-anchor="middle" x="804" y="-14.6" font-family="Times New Roman,serif" font-size="13.00">数据的收集、整理与描述</text>
</g>
<!-- 69 -->
<g id="node20" class="node"><title>69</title>
<path fill="#084081" stroke="#084081" d="M832,-108C832,-108 776,-108 776,-108 770,-108 764,-102 764,-96 764,-96 764,-84 764,-84 764,-78 770,-72 776,-72 776,-72 832,-72 832,-72 838,-72 844,-78 844,-84 844,-84 844,-96 844,-96 844,-102 838,-108 832,-108"/>
<text text-anchor="middle" x="804" y="-86.6" font-family="Times New Roman,serif" font-size="13.00">数据的分析</text>
</g>
<!-- 59&#45;&gt;69 -->
<g id="edge20" class="edge"><title>59&#45;&gt;69</title>
<path fill="none" stroke="grey" d="M804,-36.3034C804,-44.0173 804,-53.2875 804,-61.8876"/>
<polygon fill="grey" stroke="grey" points="800.5,-61.8956 804,-71.8957 807.5,-61.8957 800.5,-61.8956"/>
</g>
<!-- 76 -->
<g id="node27" class="node"><title>76</title>
<path fill="#084081" stroke="#084081" d="M496,-324C496,-324 466,-324 466,-324 460,-324 454,-318 454,-312 454,-312 454,-300 454,-300 454,-294 460,-288 466,-288 466,-288 496,-288 496,-288 502,-288 508,-294 508,-300 508,-300 508,-312 508,-312 508,-318 502,-324 496,-324"/>
<text text-anchor="middle" x="481" y="-302.6" font-family="Times New Roman,serif" font-size="13.00">相似</text>
</g>
<!-- 60&#45;&gt;76 -->
<g id="edge28" class="edge"><title>60&#45;&gt;76</title>
<path fill="none" stroke="grey" d="M481,-252.303C481,-260.017 481,-269.288 481,-277.888"/>
<polygon fill="grey" stroke="grey" points="477.5,-277.896 481,-287.896 484.5,-277.896 477.5,-277.896"/>
</g>
<!-- 72 -->
<g id="node23" class="node"><title>72</title>
<path fill="#084081" stroke="#084081" d="M667,-252C667,-252 637,-252 637,-252 631,-252 625,-246 625,-240 625,-240 625,-228 625,-228 625,-222 631,-216 637,-216 637,-216 667,-216 667,-216 673,-216 679,-222 679,-228 679,-228 679,-240 679,-240 679,-246 673,-252 667,-252"/>
<text text-anchor="middle" x="652" y="-230.6" font-family="Times New Roman,serif" font-size="13.00">旋转</text>
</g>
<!-- 61&#45;&gt;72 -->
<g id="edge24" class="edge"><title>61&#45;&gt;72</title>
<path fill="none" stroke="grey" d="M651.247,-180.303C651.357,-188.017 651.49,-197.288 651.613,-205.888"/>
<polygon fill="grey" stroke="grey" points="648.113,-205.947 651.756,-215.896 655.112,-205.847 648.113,-205.947"/>
</g>
<!-- 73 -->
<g id="node24" class="node"><title>73</title>
<path fill="#084081" stroke="#084081" d="M739,-252C739,-252 709,-252 709,-252 703,-252 697,-246 697,-240 697,-240 697,-228 697,-228 697,-222 703,-216 709,-216 709,-216 739,-216 739,-216 745,-216 751,-222 751,-228 751,-228 751,-240 751,-240 751,-246 745,-252 739,-252"/>
<text text-anchor="middle" x="724" y="-230.6" font-family="Times New Roman,serif" font-size="13.00">圆</text>
</g>
<!-- 61&#45;&gt;73 -->
<g id="edge25" class="edge"><title>61&#45;&gt;73</title>
<path fill="none" stroke="grey" d="M669.045,-180.303C678.062,-188.95 689.118,-199.551 698.943,-208.973"/>
<polygon fill="grey" stroke="grey" points="696.522,-211.501 706.163,-215.896 701.367,-206.448 696.522,-211.501"/>
</g>
<!-- 62&#45;&gt;63 -->
<g id="edge10" class="edge"><title>62&#45;&gt;63</title>
<path fill="none" stroke="grey" d="M228.742,-108.303C217.911,-117.119 204.582,-127.968 192.84,-137.526"/>
<polygon fill="grey" stroke="grey" points="190.56,-134.868 185.014,-143.896 194.979,-140.297 190.56,-134.868"/>
</g>
<!-- 65 -->
<g id="node16" class="node"><title>65</title>
<path fill="#084081" stroke="#084081" d="M344,-180C344,-180 314,-180 314,-180 308,-180 302,-174 302,-168 302,-168 302,-156 302,-156 302,-150 308,-144 314,-144 314,-144 344,-144 344,-144 350,-144 356,-150 356,-156 356,-156 356,-168 356,-168 356,-174 350,-180 344,-180"/>
<text text-anchor="middle" x="329" y="-158.6" font-family="Times New Roman,serif" font-size="13.00">分式</text>
</g>
<!-- 62&#45;&gt;65 -->
<g id="edge14" class="edge"><title>62&#45;&gt;65</title>
<path fill="none" stroke="grey" d="M269.528,-108.303C279.382,-117.035 291.486,-127.76 302.196,-137.25"/>
<polygon fill="grey" stroke="grey" points="299.891,-139.883 309.697,-143.896 304.533,-134.644 299.891,-139.883"/>
</g>
<!-- 70 -->
<g id="node21" class="node"><title>70</title>
<path fill="#084081" stroke="#084081" d="M272,-180C272,-180 228,-180 228,-180 222,-180 216,-174 216,-168 216,-168 216,-156 216,-156 216,-150 222,-144 228,-144 228,-144 272,-144 272,-144 278,-144 284,-150 284,-156 284,-156 284,-168 284,-168 284,-174 278,-180 272,-180"/>
<text text-anchor="middle" x="250" y="-158.6" font-family="Times New Roman,serif" font-size="13.00">二次根式</text>
</g>
<!-- 62&#45;&gt;70 -->
<g id="edge21" class="edge"><title>62&#45;&gt;70</title>
<path fill="none" stroke="grey" d="M250,-108.303C250,-116.017 250,-125.288 250,-133.888"/>
<polygon fill="grey" stroke="grey" points="246.5,-133.896 250,-143.896 253.5,-133.896 246.5,-133.896"/>
</g>
<!-- 66 -->
<g id="node17" class="node"><title>66</title>
<path fill="#084081" stroke="#084081" d="M229,-252C229,-252 173,-252 173,-252 167,-252 161,-246 161,-240 161,-240 161,-228 161,-228 161,-222 167,-216 173,-216 173,-216 229,-216 229,-216 235,-216 241,-222 241,-228 241,-228 241,-240 241,-240 241,-246 235,-252 229,-252"/>
<text text-anchor="middle" x="201" y="-230.6" font-family="Times New Roman,serif" font-size="13.00">反比例函数</text>
</g>
<!-- 63&#45;&gt;66 -->
<g id="edge16" class="edge"><title>63&#45;&gt;66</title>
<path fill="none" stroke="grey" d="M173.146,-180.303C177.403,-188.356 182.556,-198.106 187.266,-207.018"/>
<polygon fill="grey" stroke="grey" points="184.192,-208.69 191.959,-215.896 190.38,-205.419 184.192,-208.69"/>
</g>
<!-- 64&#45;&gt;65 -->
<g id="edge15" class="edge"><title>64&#45;&gt;65</title>
<path fill="none" stroke="grey" d="M357.607,-108.303C353.235,-116.356 347.943,-126.106 343.105,-135.018"/>
<polygon fill="grey" stroke="grey" points="339.98,-133.437 338.285,-143.896 346.132,-136.777 339.98,-133.437"/>
</g>
<!-- 71 -->
<g id="node22" class="node"><title>71</title>
<path fill="#084081" stroke="#084081" d="M386.5,-252C386.5,-252 317.5,-252 317.5,-252 311.5,-252 305.5,-246 305.5,-240 305.5,-240 305.5,-228 305.5,-228 305.5,-222 311.5,-216 317.5,-216 317.5,-216 386.5,-216 386.5,-216 392.5,-216 398.5,-222 398.5,-228 398.5,-228 398.5,-240 398.5,-240 398.5,-246 392.5,-252 386.5,-252"/>
<text text-anchor="middle" x="352" y="-230.6" font-family="Times New Roman,serif" font-size="13.00">一元二次方程</text>
</g>
<!-- 64&#45;&gt;71 -->
<g id="edge22" class="edge"><title>64&#45;&gt;71</title>
<path fill="none" stroke="grey" d="M367.717,-108.147C368.212,-126.132 368.283,-155.179 365,-180 363.864,-188.585 361.882,-197.797 359.803,-206.092"/>
<polygon fill="grey" stroke="grey" points="356.358,-205.431 357.174,-215.995 363.123,-207.228 356.358,-205.431"/>
</g>
<!-- 65&#45;&gt;66 -->
<g id="edge17" class="edge"><title>65&#45;&gt;66</title>
<path fill="none" stroke="grey" d="M301.854,-177.845C284.163,-187.52 260.772,-200.312 240.971,-211.141"/>
<polygon fill="grey" stroke="grey" points="239.253,-208.091 232.159,-215.96 242.612,-214.233 239.253,-208.091"/>
</g>
<!-- 77 -->
<g id="node28" class="node"><title>77</title>
<path fill="#084081" stroke="#084081" d="M607.5,-324C607.5,-324 538.5,-324 538.5,-324 532.5,-324 526.5,-318 526.5,-312 526.5,-312 526.5,-300 526.5,-300 526.5,-294 532.5,-288 538.5,-288 538.5,-288 607.5,-288 607.5,-288 613.5,-288 619.5,-294 619.5,-300 619.5,-300 619.5,-312 619.5,-312 619.5,-318 613.5,-324 607.5,-324"/>
<text text-anchor="middle" x="573" y="-302.6" font-family="Times New Roman,serif" font-size="13.00">锐角三角函数</text>
</g>
<!-- 67&#45;&gt;77 -->
<g id="edge29" class="edge"><title>67&#45;&gt;77</title>
<path fill="none" stroke="grey" d="M573,-252.303C573,-260.017 573,-269.288 573,-277.888"/>
<polygon fill="grey" stroke="grey" points="569.5,-277.896 573,-287.896 576.5,-277.896 569.5,-277.896"/>
</g>
<!-- 74 -->
<g id="node25" class="node"><title>74</title>
<path fill="#084081" stroke="#084081" d="M826,-180C826,-180 782,-180 782,-180 776,-180 770,-174 770,-168 770,-168 770,-156 770,-156 770,-150 776,-144 782,-144 782,-144 826,-144 826,-144 832,-144 838,-150 838,-156 838,-156 838,-168 838,-168 838,-174 832,-180 826,-180"/>
<text text-anchor="middle" x="804" y="-158.6" font-family="Times New Roman,serif" font-size="13.00">概率初步</text>
</g>
<!-- 69&#45;&gt;74 -->
<g id="edge26" class="edge"><title>69&#45;&gt;74</title>
<path fill="none" stroke="grey" d="M804,-108.303C804,-116.017 804,-125.288 804,-133.888"/>
<polygon fill="grey" stroke="grey" points="800.5,-133.896 804,-143.896 807.5,-133.896 800.5,-133.896"/>
</g>
<!-- 70&#45;&gt;71 -->
<g id="edge23" class="edge"><title>70&#45;&gt;71</title>
<path fill="none" stroke="grey" d="M274.952,-180.124C288.042,-189.107 304.26,-200.237 318.436,-209.966"/>
<polygon fill="grey" stroke="grey" points="316.726,-213.038 326.952,-215.81 320.687,-207.266 316.726,-213.038"/>
</g>
<!-- 75 -->
<g id="node26" class="node"><title>75</title>
<path fill="#084081" stroke="#084081" d="M374,-324C374,-324 330,-324 330,-324 324,-324 318,-318 318,-312 318,-312 318,-300 318,-300 318,-294 324,-288 330,-288 330,-288 374,-288 374,-288 380,-288 386,-294 386,-300 386,-300 386,-312 386,-312 386,-318 380,-324 374,-324"/>
<text text-anchor="middle" x="352" y="-302.6" font-family="Times New Roman,serif" font-size="13.00">二次函数</text>
</g>
<!-- 71&#45;&gt;75 -->
<g id="edge27" class="edge"><title>71&#45;&gt;75</title>
<path fill="none" stroke="grey" d="M352,-252.303C352,-260.017 352,-269.288 352,-277.888"/>
<polygon fill="grey" stroke="grey" points="348.5,-277.896 352,-287.896 355.5,-277.896 348.5,-277.896"/>
</g>
<!-- 78 -->
<g id="node29" class="node"><title>78</title>
<path fill="#084081" stroke="#084081" d="M729,-324C729,-324 673,-324 673,-324 667,-324 661,-318 661,-312 661,-312 661,-300 661,-300 661,-294 667,-288 673,-288 673,-288 729,-288 729,-288 735,-288 741,-294 741,-300 741,-300 741,-312 741,-312 741,-318 735,-324 729,-324"/>
<text text-anchor="middle" x="701" y="-302.6" font-family="Times New Roman,serif" font-size="13.00">投影与视图</text>
</g>
<!-- 72&#45;&gt;78 -->
<g id="edge30" class="edge"><title>72&#45;&gt;78</title>
<path fill="none" stroke="grey" d="M664.112,-252.303C669.868,-260.526 676.862,-270.517 683.206,-279.579"/>
<polygon fill="grey" stroke="grey" points="680.425,-281.71 689.027,-287.896 686.16,-277.696 680.425,-281.71"/>
</g>
<!-- 73&#45;&gt;78 -->
<g id="edge31" class="edge"><title>73&#45;&gt;78</title>
<path fill="none" stroke="grey" d="M718.315,-252.303C715.752,-260.102 712.667,-269.491 709.815,-278.171"/>
<polygon fill="grey" stroke="grey" points="706.416,-277.303 706.62,-287.896 713.067,-279.488 706.416,-277.303"/>
</g>
</g>
</svg>
