<?xml version="1.0" encoding="UTF-8" standalone="no"?>
<!DOCTYPE svg PUBLIC "-//W3C//DTD SVG 1.1//EN"
 "http://www.w3.org/Graphics/SVG/1.1/DTD/svg11.dtd">
<!-- Generated by graphviz version 2.31.20130417.0446 (20130417.0446)
 -->
<!-- Title: G Pages: 1 -->
<svg width="822pt" height="548pt"
 viewBox="0.00 0.00 822.00 548.00" xmlns="http://www.w3.org/2000/svg" xmlns:xlink="http://www.w3.org/1999/xlink">
<g id="graph0" class="graph" transform="scale(1 1) rotate(0) translate(4 544)">
<title>G</title>
<polygon fill="white" stroke="white" points="-4,5 -4,-544 819,-544 819,5 -4,5"/>
<!-- 1 -->
<g id="node1" class="node"><title>1</title>
<path fill="#084081" stroke="#084081" d="M237,-36C237,-36 207,-36 207,-36 201,-36 195,-30 195,-24 195,-24 195,-12 195,-12 195,-6 201,-0 207,-0 207,-0 237,-0 237,-0 243,-0 249,-6 249,-12 249,-12 249,-24 249,-24 249,-30 243,-36 237,-36"/>
<text text-anchor="middle" x="222" y="-14.6" font-family="Times New Roman,serif" font-size="13.00">测量</text>
</g>
<!-- 8 -->
<g id="node8" class="node"><title>8</title>
<path fill="#084081" stroke="#084081" d="M213,-108C213,-108 157,-108 157,-108 151,-108 145,-102 145,-96 145,-96 145,-84 145,-84 145,-78 151,-72 157,-72 157,-72 213,-72 213,-72 219,-72 225,-78 225,-84 225,-84 225,-96 225,-96 225,-102 219,-108 213,-108"/>
<text text-anchor="middle" x="185" y="-86.6" font-family="Times New Roman,serif" font-size="13.00">位置与方向</text>
</g>
<!-- 1&#45;&gt;8 -->
<g id="edge3" class="edge"><title>1&#45;&gt;8</title>
<path fill="none" stroke="grey" d="M212.854,-36.3034C208.597,-44.3564 203.444,-54.1055 198.734,-63.0176"/>
<polygon fill="grey" stroke="grey" points="195.62,-61.4191 194.041,-71.8957 201.808,-64.6903 195.62,-61.4191"/>
</g>
<!-- 12 -->
<g id="node12" class="node"><title>12</title>
<path fill="#084081" stroke="#084081" d="M276,-180C276,-180 246,-180 246,-180 240,-180 234,-174 234,-168 234,-168 234,-156 234,-156 234,-150 240,-144 246,-144 246,-144 276,-144 276,-144 282,-144 288,-150 288,-156 288,-156 288,-168 288,-168 288,-174 282,-180 276,-180"/>
<text text-anchor="middle" x="261" y="-158.6" font-family="Times New Roman,serif" font-size="13.00">面积</text>
</g>
<!-- 1&#45;&gt;12 -->
<g id="edge40" class="edge"><title>1&#45;&gt;12</title>
<path fill="none" stroke="grey" d="M226.704,-36.1285C233.38,-60.4364 245.67,-105.181 253.581,-133.987"/>
<polygon fill="grey" stroke="grey" points="250.256,-135.095 256.279,-143.811 257.006,-133.241 250.256,-135.095"/>
</g>
<!-- 2 -->
<g id="node2" class="node"><title>2</title>
<path fill="#084081" stroke="#084081" d="M688.5,-36C688.5,-36 581.5,-36 581.5,-36 575.5,-36 569.5,-30 569.5,-24 569.5,-24 569.5,-12 569.5,-12 569.5,-6 575.5,-0 581.5,-0 581.5,-0 688.5,-0 688.5,-0 694.5,-0 700.5,-6 700.5,-12 700.5,-12 700.5,-24 700.5,-24 700.5,-30 694.5,-36 688.5,-36"/>
<text text-anchor="middle" x="635" y="-14.6" font-family="Times New Roman,serif" font-size="13.00">万以内的加法和减法</text>
</g>
<!-- 4 -->
<g id="node4" class="node"><title>4</title>
<path fill="#084081" stroke="#084081" d="M779.5,-108C779.5,-108 710.5,-108 710.5,-108 704.5,-108 698.5,-102 698.5,-96 698.5,-96 698.5,-84 698.5,-84 698.5,-78 704.5,-72 710.5,-72 710.5,-72 779.5,-72 779.5,-72 785.5,-72 791.5,-78 791.5,-84 791.5,-84 791.5,-96 791.5,-96 791.5,-102 785.5,-108 779.5,-108"/>
<text text-anchor="middle" x="745" y="-86.6" font-family="Times New Roman,serif" font-size="13.00">有余数的除法</text>
</g>
<!-- 2&#45;&gt;4 -->
<g id="edge1" class="edge"><title>2&#45;&gt;4</title>
<path fill="none" stroke="grey" d="M661.909,-36.1239C676.158,-45.1917 693.846,-56.4477 709.236,-66.2408"/>
<polygon fill="grey" stroke="grey" points="707.672,-69.3943 717.988,-71.8102 711.43,-63.4886 707.672,-69.3943"/>
</g>
<!-- 6 -->
<g id="node6" class="node"><title>6</title>
<path fill="#084081" stroke="#084081" d="M567,-108C567,-108 485,-108 485,-108 479,-108 473,-102 473,-96 473,-96 473,-84 473,-84 473,-78 479,-72 485,-72 485,-72 567,-72 567,-72 573,-72 579,-78 579,-84 579,-84 579,-96 579,-96 579,-102 573,-108 567,-108"/>
<text text-anchor="middle" x="526" y="-86.6" font-family="Times New Roman,serif" font-size="13.00">多位数乘一位数</text>
</g>
<!-- 2&#45;&gt;6 -->
<g id="edge2" class="edge"><title>2&#45;&gt;6</title>
<path fill="none" stroke="grey" d="M608.336,-36.1239C594.216,-45.1917 576.689,-56.4477 561.439,-66.2408"/>
<polygon fill="grey" stroke="grey" points="559.29,-63.4615 552.767,-71.8102 563.073,-69.3515 559.29,-63.4615"/>
</g>
<!-- 3 -->
<g id="node3" class="node"><title>3</title>
<path fill="#084081" stroke="#084081" d="M127.5,-252C127.5,-252 96.5,-252 96.5,-252 90.5,-252 84.5,-246 84.5,-240 84.5,-240 84.5,-228 84.5,-228 84.5,-222 90.5,-216 96.5,-216 96.5,-216 127.5,-216 127.5,-216 133.5,-216 139.5,-222 139.5,-228 139.5,-228 139.5,-240 139.5,-240 139.5,-246 133.5,-252 127.5,-252"/>
<text text-anchor="middle" x="112" y="-230.6" font-family="Times New Roman,serif" font-size="13.00">四边形</text>
</g>
<!-- 24 -->
<g id="node23" class="node"><title>24</title>
<path fill="#084081" stroke="#084081" d="M192,-324C192,-324 136,-324 136,-324 130,-324 124,-318 124,-312 124,-312 124,-300 124,-300 124,-294 130,-288 136,-288 136,-288 192,-288 192,-288 198,-288 204,-294 204,-300 204,-300 204,-312 204,-312 204,-318 198,-324 192,-324"/>
<text text-anchor="middle" x="164" y="-302.6" font-family="Times New Roman,serif" font-size="13.00">图形的变换</text>
</g>
<!-- 3&#45;&gt;24 -->
<g id="edge18" class="edge"><title>3&#45;&gt;24</title>
<path fill="none" stroke="grey" d="M124.854,-252.303C131.025,-260.611 138.537,-270.723 145.324,-279.859"/>
<polygon fill="grey" stroke="grey" points="142.521,-281.955 151.294,-287.896 148.14,-277.781 142.521,-281.955"/>
</g>
<!-- 26 -->
<g id="node25" class="node"><title>26</title>
<path fill="#084081" stroke="#084081" d="M94,-324C94,-324 12,-324 12,-324 6,-324 0,-318 0,-312 0,-312 0,-300 0,-300 0,-294 6,-288 12,-288 12,-288 94,-288 94,-288 100,-288 106,-294 106,-300 106,-300 106,-312 106,-312 106,-318 100,-324 94,-324"/>
<text text-anchor="middle" x="53" y="-302.6" font-family="Times New Roman,serif" font-size="13.00">长方体和正方体</text>
</g>
<!-- 3&#45;&gt;26 -->
<g id="edge21" class="edge"><title>3&#45;&gt;26</title>
<path fill="none" stroke="grey" d="M97.4157,-252.303C90.3424,-260.695 81.7166,-270.93 73.9546,-280.139"/>
<polygon fill="grey" stroke="grey" points="71.1851,-277.994 67.4165,-287.896 76.5375,-282.505 71.1851,-277.994"/>
</g>
<!-- 9 -->
<g id="node9" class="node"><title>9</title>
<path fill="#084081" stroke="#084081" d="M801.5,-180C801.5,-180 694.5,-180 694.5,-180 688.5,-180 682.5,-174 682.5,-168 682.5,-168 682.5,-156 682.5,-156 682.5,-150 688.5,-144 694.5,-144 694.5,-144 801.5,-144 801.5,-144 807.5,-144 813.5,-150 813.5,-156 813.5,-156 813.5,-168 813.5,-168 813.5,-174 807.5,-180 801.5,-180"/>
<text text-anchor="middle" x="748" y="-158.6" font-family="Times New Roman,serif" font-size="13.00">除数是一位数的除法</text>
</g>
<!-- 4&#45;&gt;9 -->
<g id="edge4" class="edge"><title>4&#45;&gt;9</title>
<path fill="none" stroke="grey" d="M745.742,-108.303C746.072,-116.017 746.469,-125.288 746.838,-133.888"/>
<polygon fill="grey" stroke="grey" points="743.342,-134.055 747.267,-143.896 750.335,-133.755 743.342,-134.055"/>
</g>
<!-- 5 -->
<g id="node5" class="node"><title>5</title>
<path fill="#084081" stroke="#084081" d="M665,-108C665,-108 609,-108 609,-108 603,-108 597,-102 597,-96 597,-96 597,-84 597,-84 597,-78 603,-72 609,-72 609,-72 665,-72 665,-72 671,-72 677,-78 677,-84 677,-84 677,-96 677,-96 677,-102 671,-108 665,-108"/>
<text text-anchor="middle" x="637" y="-86.6" font-family="Times New Roman,serif" font-size="13.00">时、分、秒</text>
</g>
<!-- 10 -->
<g id="node10" class="node"><title>10</title>
<path fill="#084081" stroke="#084081" d="M652,-180C652,-180 596,-180 596,-180 590,-180 584,-174 584,-168 584,-168 584,-156 584,-156 584,-150 590,-144 596,-144 596,-144 652,-144 652,-144 658,-144 664,-150 664,-156 664,-156 664,-168 664,-168 664,-174 658,-180 652,-180"/>
<text text-anchor="middle" x="624" y="-158.6" font-family="Times New Roman,serif" font-size="13.00">年、月、日</text>
</g>
<!-- 5&#45;&gt;10 -->
<g id="edge5" class="edge"><title>5&#45;&gt;10</title>
<path fill="none" stroke="grey" d="M633.787,-108.303C632.354,-116.017 630.632,-125.288 629.035,-133.888"/>
<polygon fill="grey" stroke="grey" points="625.561,-133.425 627.177,-143.896 632.444,-134.703 625.561,-133.425"/>
</g>
<!-- 6&#45;&gt;10 -->
<g id="edge6" class="edge"><title>6&#45;&gt;10</title>
<path fill="none" stroke="grey" d="M549.973,-108.124C562.55,-117.107 578.132,-128.237 591.752,-137.966"/>
<polygon fill="grey" stroke="grey" points="589.763,-140.846 599.934,-143.81 593.831,-135.15 589.763,-140.846"/>
</g>
<!-- 11 -->
<g id="node11" class="node"><title>11</title>
<path fill="#084081" stroke="#084081" d="M456,-180C456,-180 374,-180 374,-180 368,-180 362,-174 362,-168 362,-168 362,-156 362,-156 362,-150 368,-144 374,-144 374,-144 456,-144 456,-144 462,-144 468,-150 468,-156 468,-156 468,-168 468,-168 468,-174 462,-180 456,-180"/>
<text text-anchor="middle" x="415" y="-158.6" font-family="Times New Roman,serif" font-size="13.00">两位数乘两位数</text>
</g>
<!-- 6&#45;&gt;11 -->
<g id="edge7" class="edge"><title>6&#45;&gt;11</title>
<path fill="none" stroke="grey" d="M498.846,-108.124C484.467,-117.192 466.619,-128.448 451.09,-138.241"/>
<polygon fill="grey" stroke="grey" points="448.85,-135.516 442.258,-143.81 452.584,-141.436 448.85,-135.516"/>
</g>
<!-- 13 -->
<g id="node13" class="node"><title>13</title>
<path fill="#084081" stroke="#084081" d="M554,-180C554,-180 498,-180 498,-180 492,-180 486,-174 486,-168 486,-168 486,-156 486,-156 486,-150 492,-144 498,-144 498,-144 554,-144 554,-144 560,-144 566,-150 566,-156 566,-156 566,-168 566,-168 566,-174 560,-180 554,-180"/>
<text text-anchor="middle" x="526" y="-158.6" font-family="Times New Roman,serif" font-size="13.00">大数的认识</text>
</g>
<!-- 6&#45;&gt;13 -->
<g id="edge8" class="edge"><title>6&#45;&gt;13</title>
<path fill="none" stroke="grey" d="M526,-108.303C526,-116.017 526,-125.288 526,-133.888"/>
<polygon fill="grey" stroke="grey" points="522.5,-133.896 526,-143.896 529.5,-133.896 522.5,-133.896"/>
</g>
<!-- 7 -->
<g id="node7" class="node"><title>7</title>
<path fill="#084081" stroke="#084081" d="M571.5,-468C571.5,-468 540.5,-468 540.5,-468 534.5,-468 528.5,-462 528.5,-456 528.5,-456 528.5,-444 528.5,-444 528.5,-438 534.5,-432 540.5,-432 540.5,-432 571.5,-432 571.5,-432 577.5,-432 583.5,-438 583.5,-444 583.5,-444 583.5,-456 583.5,-456 583.5,-462 577.5,-468 571.5,-468"/>
<text text-anchor="middle" x="556" y="-446.6" font-family="Times New Roman,serif" font-size="13.00">可能性</text>
</g>
<!-- 36 -->
<g id="node34" class="node"><title>36</title>
<path fill="#084081" stroke="#084081" d="M620,-540C620,-540 564,-540 564,-540 558,-540 552,-534 552,-528 552,-528 552,-516 552,-516 552,-510 558,-504 564,-504 564,-504 620,-504 620,-504 626,-504 632,-510 632,-516 632,-516 632,-528 632,-528 632,-534 626,-540 620,-540"/>
<text text-anchor="middle" x="592" y="-518.6" font-family="Times New Roman,serif" font-size="13.00">统计与概率</text>
</g>
<!-- 7&#45;&gt;36 -->
<g id="edge33" class="edge"><title>7&#45;&gt;36</title>
<path fill="none" stroke="grey" d="M564.899,-468.303C568.997,-476.272 573.949,-485.9 578.493,-494.736"/>
<polygon fill="grey" stroke="grey" points="575.517,-496.604 583.203,-503.896 581.742,-493.402 575.517,-496.604"/>
</g>
<!-- 14 -->
<g id="node14" class="node"><title>14</title>
<path fill="#084081" stroke="#084081" d="M204,-180C204,-180 160,-180 160,-180 154,-180 148,-174 148,-168 148,-168 148,-156 148,-156 148,-150 154,-144 160,-144 160,-144 204,-144 204,-144 210,-144 216,-150 216,-156 216,-156 216,-168 216,-168 216,-174 210,-180 204,-180"/>
<text text-anchor="middle" x="182" y="-158.6" font-family="Times New Roman,serif" font-size="13.00">角的度量</text>
</g>
<!-- 8&#45;&gt;14 -->
<g id="edge9" class="edge"><title>8&#45;&gt;14</title>
<path fill="none" stroke="grey" d="M184.258,-108.303C183.928,-116.017 183.531,-125.288 183.162,-133.888"/>
<polygon fill="grey" stroke="grey" points="179.665,-133.755 182.733,-143.896 186.658,-134.055 179.665,-133.755"/>
</g>
<!-- 16 -->
<g id="node16" class="node"><title>16</title>
<path fill="#084081" stroke="#084081" d="M781.5,-252C781.5,-252 674.5,-252 674.5,-252 668.5,-252 662.5,-246 662.5,-240 662.5,-240 662.5,-228 662.5,-228 662.5,-222 668.5,-216 674.5,-216 674.5,-216 781.5,-216 781.5,-216 787.5,-216 793.5,-222 793.5,-228 793.5,-228 793.5,-240 793.5,-240 793.5,-246 787.5,-252 781.5,-252"/>
<text text-anchor="middle" x="728" y="-230.6" font-family="Times New Roman,serif" font-size="13.00">除数是两位数的除法</text>
</g>
<!-- 9&#45;&gt;16 -->
<g id="edge11" class="edge"><title>9&#45;&gt;16</title>
<path fill="none" stroke="grey" d="M743.056,-180.303C740.828,-188.102 738.145,-197.491 735.665,-206.171"/>
<polygon fill="grey" stroke="grey" points="732.269,-205.319 732.887,-215.896 739,-207.242 732.269,-205.319"/>
</g>
<!-- 15 -->
<g id="node15" class="node"><title>15</title>
<path fill="#084081" stroke="#084081" d="M531,-252C531,-252 449,-252 449,-252 443,-252 437,-246 437,-240 437,-240 437,-228 437,-228 437,-222 443,-216 449,-216 449,-216 531,-216 531,-216 537,-216 543,-222 543,-228 543,-228 543,-240 543,-240 543,-246 537,-252 531,-252"/>
<text text-anchor="middle" x="490" y="-230.6" font-family="Times New Roman,serif" font-size="13.00">三位数乘两位数</text>
</g>
<!-- 11&#45;&gt;15 -->
<g id="edge10" class="edge"><title>11&#45;&gt;15</title>
<path fill="none" stroke="grey" d="M433.539,-180.303C442.803,-188.95 454.162,-199.551 464.257,-208.973"/>
<polygon fill="grey" stroke="grey" points="461.975,-211.631 471.674,-215.896 466.751,-206.514 461.975,-211.631"/>
</g>
<!-- 21 -->
<g id="node20" class="node"><title>21</title>
<path fill="#084081" stroke="#084081" d="M202.5,-252C202.5,-252 171.5,-252 171.5,-252 165.5,-252 159.5,-246 159.5,-240 159.5,-240 159.5,-228 159.5,-228 159.5,-222 165.5,-216 171.5,-216 171.5,-216 202.5,-216 202.5,-216 208.5,-216 214.5,-222 214.5,-228 214.5,-228 214.5,-240 214.5,-240 214.5,-246 208.5,-252 202.5,-252"/>
<text text-anchor="middle" x="187" y="-230.6" font-family="Times New Roman,serif" font-size="13.00">三角形</text>
</g>
<!-- 12&#45;&gt;21 -->
<g id="edge38" class="edge"><title>12&#45;&gt;21</title>
<path fill="none" stroke="grey" d="M242.708,-180.303C233.567,-188.95 222.36,-199.551 212.4,-208.973"/>
<polygon fill="grey" stroke="grey" points="209.941,-206.481 205.082,-215.896 214.752,-211.566 209.941,-206.481"/>
</g>
<!-- 23 -->
<g id="node22" class="node"><title>23</title>
<path fill="#084081" stroke="#084081" d="M387.5,-252C387.5,-252 318.5,-252 318.5,-252 312.5,-252 306.5,-246 306.5,-240 306.5,-240 306.5,-228 306.5,-228 306.5,-222 312.5,-216 318.5,-216 318.5,-216 387.5,-216 387.5,-216 393.5,-216 399.5,-222 399.5,-228 399.5,-228 399.5,-240 399.5,-240 399.5,-246 393.5,-252 387.5,-252"/>
<text text-anchor="middle" x="353" y="-230.6" font-family="Times New Roman,serif" font-size="13.00">多边形的面积</text>
</g>
<!-- 12&#45;&gt;23 -->
<g id="edge17" class="edge"><title>12&#45;&gt;23</title>
<path fill="none" stroke="grey" d="M283.742,-180.303C295.44,-189.204 309.861,-200.177 322.51,-209.801"/>
<polygon fill="grey" stroke="grey" points="320.442,-212.626 330.52,-215.896 324.681,-207.055 320.442,-212.626"/>
</g>
<!-- 29 -->
<g id="node27" class="node"><title>29</title>
<path fill="#084081" stroke="#084081" d="M276,-252C276,-252 246,-252 246,-252 240,-252 234,-246 234,-240 234,-240 234,-228 234,-228 234,-222 240,-216 246,-216 246,-216 276,-216 276,-216 282,-216 288,-222 288,-228 288,-228 288,-240 288,-240 288,-246 282,-252 276,-252"/>
<text text-anchor="middle" x="261" y="-230.6" font-family="Times New Roman,serif" font-size="13.00">圆</text>
</g>
<!-- 12&#45;&gt;29 -->
<g id="edge39" class="edge"><title>12&#45;&gt;29</title>
<path fill="none" stroke="grey" d="M261,-180.303C261,-188.017 261,-197.288 261,-205.888"/>
<polygon fill="grey" stroke="grey" points="257.5,-205.896 261,-215.896 264.5,-205.896 257.5,-205.896"/>
</g>
<!-- 14&#45;&gt;21 -->
<g id="edge15" class="edge"><title>14&#45;&gt;21</title>
<path fill="none" stroke="grey" d="M183.236,-180.303C183.787,-188.017 184.449,-197.288 185.063,-205.888"/>
<polygon fill="grey" stroke="grey" points="181.575,-206.17 185.778,-215.896 188.557,-205.672 181.575,-206.17"/>
</g>
<!-- 14&#45;&gt;26 -->
<g id="edge22" class="edge"><title>14&#45;&gt;26</title>
<path fill="none" stroke="grey" d="M147.955,-171.597C124.12,-179.349 93.3673,-193.129 75,-216 61.022,-233.406 55.7567,-258.453 53.8529,-277.545"/>
<polygon fill="grey" stroke="grey" points="50.3473,-277.49 53.0934,-287.723 57.3279,-278.011 50.3473,-277.49"/>
</g>
<!-- 17 -->
<g id="node17" class="node"><title>17</title>
<path fill="#084081" stroke="#084081" d="M512,-324C512,-324 468,-324 468,-324 462,-324 456,-318 456,-312 456,-312 456,-300 456,-300 456,-294 462,-288 468,-288 468,-288 512,-288 512,-288 518,-288 524,-294 524,-300 524,-300 524,-312 524,-312 524,-318 518,-324 512,-324"/>
<text text-anchor="middle" x="490" y="-302.6" font-family="Times New Roman,serif" font-size="13.00">四则运算</text>
</g>
<!-- 15&#45;&gt;17 -->
<g id="edge12" class="edge"><title>15&#45;&gt;17</title>
<path fill="none" stroke="grey" d="M490,-252.303C490,-260.017 490,-269.288 490,-277.888"/>
<polygon fill="grey" stroke="grey" points="486.5,-277.896 490,-287.896 493.5,-277.896 486.5,-277.896"/>
</g>
<!-- 25 -->
<g id="node24" class="node"><title>25</title>
<path fill="#084081" stroke="#084081" d="M736,-324C736,-324 680,-324 680,-324 674,-324 668,-318 668,-312 668,-312 668,-300 668,-300 668,-294 674,-288 680,-288 680,-288 736,-288 736,-288 742,-288 748,-294 748,-300 748,-300 748,-312 748,-312 748,-318 742,-324 736,-324"/>
<text text-anchor="middle" x="708" y="-302.6" font-family="Times New Roman,serif" font-size="13.00">因数与倍数</text>
</g>
<!-- 15&#45;&gt;25 -->
<g id="edge41" class="edge"><title>15&#45;&gt;25</title>
<path fill="none" stroke="grey" d="M543.05,-252.034C578.036,-263.269 623.574,-277.891 657.936,-288.925"/>
<polygon fill="grey" stroke="grey" points="657.174,-292.356 667.765,-292.08 659.314,-285.691 657.174,-292.356"/>
</g>
<!-- 16&#45;&gt;25 -->
<g id="edge20" class="edge"><title>16&#45;&gt;25</title>
<path fill="none" stroke="grey" d="M723.056,-252.303C720.828,-260.102 718.145,-269.491 715.665,-278.171"/>
<polygon fill="grey" stroke="grey" points="712.269,-277.319 712.887,-287.896 719,-279.242 712.269,-277.319"/>
</g>
<!-- 18 -->
<g id="node18" class="node"><title>18</title>
<path fill="#084081" stroke="#084081" d="M543.5,-396C543.5,-396 436.5,-396 436.5,-396 430.5,-396 424.5,-390 424.5,-384 424.5,-384 424.5,-372 424.5,-372 424.5,-366 430.5,-360 436.5,-360 436.5,-360 543.5,-360 543.5,-360 549.5,-360 555.5,-366 555.5,-372 555.5,-372 555.5,-384 555.5,-384 555.5,-390 549.5,-396 543.5,-396"/>
<text text-anchor="middle" x="490" y="-374.6" font-family="Times New Roman,serif" font-size="13.00">运算定律与简便计算</text>
</g>
<!-- 17&#45;&gt;18 -->
<g id="edge13" class="edge"><title>17&#45;&gt;18</title>
<path fill="none" stroke="grey" d="M490,-324.303C490,-332.017 490,-341.288 490,-349.888"/>
<polygon fill="grey" stroke="grey" points="486.5,-349.896 490,-359.896 493.5,-349.896 486.5,-349.896"/>
</g>
<!-- 20 -->
<g id="node19" class="node"><title>20</title>
<path fill="#084081" stroke="#084081" d="M394,-396C394,-396 312,-396 312,-396 306,-396 300,-390 300,-384 300,-384 300,-372 300,-372 300,-366 306,-360 312,-360 312,-360 394,-360 394,-360 400,-360 406,-366 406,-372 406,-372 406,-384 406,-384 406,-390 400,-396 394,-396"/>
<text text-anchor="middle" x="353" y="-374.6" font-family="Times New Roman,serif" font-size="13.00">小数的四则运算</text>
</g>
<!-- 17&#45;&gt;20 -->
<g id="edge14" class="edge"><title>17&#45;&gt;20</title>
<path fill="none" stroke="grey" d="M456.486,-324.124C438.159,-333.488 415.264,-345.186 395.672,-355.197"/>
<polygon fill="grey" stroke="grey" points="393.955,-352.143 386.643,-359.81 397.14,-358.377 393.955,-352.143"/>
</g>
<!-- 28 -->
<g id="node26" class="node"><title>28</title>
<path fill="#084081" stroke="#084081" d="M668,-396C668,-396 586,-396 586,-396 580,-396 574,-390 574,-384 574,-384 574,-372 574,-372 574,-366 580,-360 586,-360 586,-360 668,-360 668,-360 674,-360 680,-366 680,-372 680,-372 680,-384 680,-384 680,-390 674,-396 668,-396"/>
<text text-anchor="middle" x="627" y="-374.6" font-family="Times New Roman,serif" font-size="13.00">分数的四则运算</text>
</g>
<!-- 17&#45;&gt;28 -->
<g id="edge23" class="edge"><title>17&#45;&gt;28</title>
<path fill="none" stroke="grey" d="M523.514,-324.124C541.841,-333.488 564.736,-345.186 584.328,-355.197"/>
<polygon fill="grey" stroke="grey" points="582.86,-358.377 593.357,-359.81 586.045,-352.143 582.86,-358.377"/>
</g>
<!-- 37 -->
<g id="node35" class="node"><title>37</title>
<path fill="#084081" stroke="#084081" d="M498,-468C498,-468 454,-468 454,-468 448,-468 442,-462 442,-456 442,-456 442,-444 442,-444 442,-438 448,-432 454,-432 454,-432 498,-432 498,-432 504,-432 510,-438 510,-444 510,-444 510,-456 510,-456 510,-462 504,-468 498,-468"/>
<text text-anchor="middle" x="476" y="-446.6" font-family="Times New Roman,serif" font-size="13.00">综合应用</text>
</g>
<!-- 18&#45;&gt;37 -->
<g id="edge35" class="edge"><title>18&#45;&gt;37</title>
<path fill="none" stroke="grey" d="M486.539,-396.303C484.997,-404.017 483.142,-413.288 481.422,-421.888"/>
<polygon fill="grey" stroke="grey" points="477.95,-421.403 479.421,-431.896 484.814,-422.776 477.95,-421.403"/>
</g>
<!-- 22 -->
<g id="node21" class="node"><title>22</title>
<path fill="#084081" stroke="#084081" d="M375,-468C375,-468 331,-468 331,-468 325,-468 319,-462 319,-456 319,-456 319,-444 319,-444 319,-438 325,-432 331,-432 331,-432 375,-432 375,-432 381,-432 387,-438 387,-444 387,-444 387,-456 387,-456 387,-462 381,-468 375,-468"/>
<text text-anchor="middle" x="353" y="-446.6" font-family="Times New Roman,serif" font-size="13.00">简易方程</text>
</g>
<!-- 20&#45;&gt;22 -->
<g id="edge16" class="edge"><title>20&#45;&gt;22</title>
<path fill="none" stroke="grey" d="M353,-396.303C353,-404.017 353,-413.288 353,-421.888"/>
<polygon fill="grey" stroke="grey" points="349.5,-421.896 353,-431.896 356.5,-421.896 349.5,-421.896"/>
</g>
<!-- 20&#45;&gt;37 -->
<g id="edge36" class="edge"><title>20&#45;&gt;37</title>
<path fill="none" stroke="grey" d="M383.089,-396.124C399.32,-405.361 419.542,-416.869 436.971,-426.788"/>
<polygon fill="grey" stroke="grey" points="435.373,-429.906 445.795,-431.81 438.835,-423.822 435.373,-429.906"/>
</g>
<!-- 21&#45;&gt;24 -->
<g id="edge19" class="edge"><title>21&#45;&gt;24</title>
<path fill="none" stroke="grey" d="M181.315,-252.303C178.752,-260.102 175.667,-269.491 172.815,-278.171"/>
<polygon fill="grey" stroke="grey" points="169.416,-277.303 169.62,-287.896 176.067,-279.488 169.416,-277.303"/>
</g>
<!-- 32 -->
<g id="node30" class="node"><title>32</title>
<path fill="#084081" stroke="#084081" d="M290,-324C290,-324 234,-324 234,-324 228,-324 222,-318 222,-312 222,-312 222,-300 222,-300 222,-294 228,-288 234,-288 234,-288 290,-288 290,-288 296,-288 302,-294 302,-300 302,-300 302,-312 302,-312 302,-318 296,-324 290,-324"/>
<text text-anchor="middle" x="262" y="-302.6" font-family="Times New Roman,serif" font-size="13.00">圆柱与圆锥</text>
</g>
<!-- 21&#45;&gt;32 -->
<g id="edge26" class="edge"><title>21&#45;&gt;32</title>
<path fill="none" stroke="grey" d="M205.539,-252.303C214.803,-260.95 226.162,-271.551 236.257,-280.973"/>
<polygon fill="grey" stroke="grey" points="233.975,-283.631 243.674,-287.896 238.751,-278.514 233.975,-283.631"/>
</g>
<!-- 31 -->
<g id="node29" class="node"><title>31</title>
<path fill="#084081" stroke="#084081" d="M329,-540C329,-540 299,-540 299,-540 293,-540 287,-534 287,-528 287,-528 287,-516 287,-516 287,-510 293,-504 299,-504 299,-504 329,-504 329,-504 335,-504 341,-510 341,-516 341,-516 341,-528 341,-528 341,-534 335,-540 329,-540"/>
<text text-anchor="middle" x="314" y="-518.6" font-family="Times New Roman,serif" font-size="13.00">负数</text>
</g>
<!-- 22&#45;&gt;31 -->
<g id="edge25" class="edge"><title>22&#45;&gt;31</title>
<path fill="none" stroke="grey" d="M343.36,-468.303C338.873,-476.356 333.441,-486.106 328.476,-495.018"/>
<polygon fill="grey" stroke="grey" points="325.339,-493.456 323.53,-503.896 331.454,-496.863 325.339,-493.456"/>
</g>
<!-- 34 -->
<g id="node32" class="node"><title>34</title>
<path fill="#084081" stroke="#084081" d="M415,-540C415,-540 371,-540 371,-540 365,-540 359,-534 359,-528 359,-528 359,-516 359,-516 359,-510 365,-504 371,-504 371,-504 415,-504 415,-504 421,-504 427,-510 427,-516 427,-516 427,-528 427,-528 427,-534 421,-540 415,-540"/>
<text text-anchor="middle" x="393" y="-518.6" font-family="Times New Roman,serif" font-size="13.00">数与代数</text>
</g>
<!-- 22&#45;&gt;34 -->
<g id="edge30" class="edge"><title>22&#45;&gt;34</title>
<path fill="none" stroke="grey" d="M362.888,-468.303C367.489,-476.356 373.06,-486.106 378.153,-495.018"/>
<polygon fill="grey" stroke="grey" points="375.226,-496.95 383.226,-503.896 381.304,-493.477 375.226,-496.95"/>
</g>
<!-- 33 -->
<g id="node31" class="node"><title>33</title>
<path fill="#084081" stroke="#084081" d="M721,-468C721,-468 691,-468 691,-468 685,-468 679,-462 679,-456 679,-456 679,-444 679,-444 679,-438 685,-432 691,-432 691,-432 721,-432 721,-432 727,-432 733,-438 733,-444 733,-444 733,-456 733,-456 733,-462 727,-468 721,-468"/>
<text text-anchor="middle" x="706" y="-446.6" font-family="Times New Roman,serif" font-size="13.00">比例</text>
</g>
<!-- 25&#45;&gt;33 -->
<g id="edge28" class="edge"><title>25&#45;&gt;33</title>
<path fill="none" stroke="grey" d="M707.759,-324.129C707.418,-348.33 706.792,-392.789 706.386,-421.607"/>
<polygon fill="grey" stroke="grey" points="702.883,-421.762 706.242,-431.811 709.883,-421.861 702.883,-421.762"/>
</g>
<!-- 35 -->
<g id="node33" class="node"><title>35</title>
<path fill="#084081" stroke="#084081" d="M176,-396C176,-396 120,-396 120,-396 114,-396 108,-390 108,-384 108,-384 108,-372 108,-372 108,-366 114,-360 120,-360 120,-360 176,-360 176,-360 182,-360 188,-366 188,-372 188,-372 188,-384 188,-384 188,-390 182,-396 176,-396"/>
<text text-anchor="middle" x="148" y="-374.6" font-family="Times New Roman,serif" font-size="13.00">空间与图形</text>
</g>
<!-- 26&#45;&gt;35 -->
<g id="edge31" class="edge"><title>26&#45;&gt;35</title>
<path fill="none" stroke="grey" d="M76.4832,-324.303C88.5626,-333.204 103.454,-344.177 116.516,-353.801"/>
<polygon fill="grey" stroke="grey" points="114.66,-356.781 124.787,-359.896 118.813,-351.146 114.66,-356.781"/>
</g>
<!-- 30 -->
<g id="node28" class="node"><title>30</title>
<path fill="#084081" stroke="#084081" d="M644.5,-468C644.5,-468 613.5,-468 613.5,-468 607.5,-468 601.5,-462 601.5,-456 601.5,-456 601.5,-444 601.5,-444 601.5,-438 607.5,-432 613.5,-432 613.5,-432 644.5,-432 644.5,-432 650.5,-432 656.5,-438 656.5,-444 656.5,-444 656.5,-456 656.5,-456 656.5,-462 650.5,-468 644.5,-468"/>
<text text-anchor="middle" x="629" y="-446.6" font-family="Times New Roman,serif" font-size="13.00">百分数</text>
</g>
<!-- 28&#45;&gt;30 -->
<g id="edge24" class="edge"><title>28&#45;&gt;30</title>
<path fill="none" stroke="grey" d="M627.494,-396.303C627.715,-404.017 627.98,-413.288 628.225,-421.888"/>
<polygon fill="grey" stroke="grey" points="624.727,-422 628.511,-431.896 631.724,-421.8 624.727,-422"/>
</g>
<!-- 28&#45;&gt;33 -->
<g id="edge29" class="edge"><title>28&#45;&gt;33</title>
<path fill="none" stroke="grey" d="M646.528,-396.303C656.382,-405.035 668.486,-415.76 679.196,-425.25"/>
<polygon fill="grey" stroke="grey" points="676.891,-427.883 686.697,-431.896 681.533,-422.644 676.891,-427.883"/>
</g>
<!-- 28&#45;&gt;37 -->
<g id="edge37" class="edge"><title>28&#45;&gt;37</title>
<path fill="none" stroke="grey" d="M590.061,-396.124C568.746,-406.005 541.826,-418.484 519.492,-428.838"/>
<polygon fill="grey" stroke="grey" points="517.832,-425.75 510.231,-433.131 520.776,-432.101 517.832,-425.75"/>
</g>
<!-- 29&#45;&gt;32 -->
<g id="edge27" class="edge"><title>29&#45;&gt;32</title>
<path fill="none" stroke="grey" d="M261.247,-252.303C261.357,-260.017 261.49,-269.288 261.613,-277.888"/>
<polygon fill="grey" stroke="grey" points="258.113,-277.947 261.756,-287.896 265.112,-277.847 258.113,-277.947"/>
</g>
<!-- 30&#45;&gt;36 -->
<g id="edge34" class="edge"><title>30&#45;&gt;36</title>
<path fill="none" stroke="grey" d="M619.854,-468.303C615.597,-476.356 610.444,-486.106 605.734,-495.018"/>
<polygon fill="grey" stroke="grey" points="602.62,-493.419 601.041,-503.896 608.808,-496.69 602.62,-493.419"/>
</g>
<!-- 32&#45;&gt;35 -->
<g id="edge32" class="edge"><title>32&#45;&gt;35</title>
<path fill="none" stroke="grey" d="M234.112,-324.124C219.207,-333.276 200.671,-344.658 184.618,-354.515"/>
<polygon fill="grey" stroke="grey" points="182.685,-351.595 175.995,-359.81 186.348,-357.56 182.685,-351.595"/>
</g>
</g>
</svg>
